<?xml version="1.0" encoding="UTF-8"?><svg id="Ebene_1" xmlns="http://www.w3.org/2000/svg" viewBox="0 0 379 371"><defs><style>.cls-1{fill:#fff;}.cls-2{fill:#e43229;}</style></defs><path class="cls-2" d="M189.281,335.889l-124.807-71.34V119.811L189.254,47.577l124.773,72.233v144.244l-124.746,71.834Zm-94.807-88.746l94.752,54.16,94.801-54.592v-109.604l-94.773-54.866-94.779,54.866v110.035Z"/><polygon class="cls-1" points="282.366 319.657 247.56 284.85 253.216 279.193 282.366 308.343 349.355 241.355 355.012 247.012 282.366 319.657"/><path class="cls-1" d="M238,163.476v-29.726l-23,13.548v-28.548l-25,14.726v-28.226l-75,44.179v88.342l25-15.068v28.568l23-13.863v28.863l25-15.068v30.037l75-43.664v-88.825l-25,14.726Zm-98,56.89l-23,13.863v-83.658l71-41.821v25.904l-48,28.274v57.438Zm2-56.295l71-41.821v26.226l-50,29.452v57.143l-21,12.657v-83.658Zm73-14.452l21-12.37v27.404l-48,28.274v55.938l-23,13.863v-83.658m96,57.354l-71,41.336v-83.689l71-41.821v84.175Z"/><g><polygon class="cls-1" points="207 219.1 207 221.429 245 198.751 245 196.423 207 219.1"/><polygon class="cls-1" points="207 232.974 207 235.303 245 212.625 245 210.297 207 232.974"/><polygon class="cls-1" points="207 204.706 207 207.034 245 184.358 245 182.029 207 204.706"/><polygon class="cls-1" points="226 234.937 226 237.266 245 225.927 245 223.598 226 234.937"/></g></svg>