<?xml version="1.0" encoding="UTF-8"?><svg id="Ebene_1" xmlns="http://www.w3.org/2000/svg" viewBox="0 0 379 371"><defs><style>.cls-1{fill:#fff;}.cls-2{fill:#e43229;}.cls-3{fill:#232031;}</style></defs><path class="cls-2" d="M189.281,335.889l-124.807-71.34V119.811L189.254,47.577l124.773,72.233v144.244l-124.746,71.834Zm-94.807-88.746l94.752,54.16,94.801-54.592v-109.604l-94.773-54.866-94.779,54.866v110.035Z"/><line class="cls-3" x1="189" y1="196" x2="190" y2="279"/><path class="cls-1" d="M344.333,288.002l-3.828-16.747-4.332,6.902-73.394-46.061v-81.1l-69.78-42.719V37.144h8.148l-12.15-12.144-12.146,12.144h8.148V108.224l-69.78,41.674v81.105l-70.617,43.243-4.255-6.949-4.012,16.704,16.7,4.016-4.255-6.949,69.906-42.808,71.32,41.818,69.882-40.354,72.033,45.207-4.332,6.902,16.743-3.832Zm-227.113-52.92v-82.615l70.785,43.96,.973,80.729-71.758-42.075Zm71.995-40.257l-71.24-44.243,71.018-42.413,70.817,43.354-70.596,43.303Zm.793,1.859l70.772-43.411v83.627l-69.802,40.308-.97-80.524Z"/></svg>