<?xml version="1.0" encoding="UTF-8"?><svg id="Ebene_1" xmlns="http://www.w3.org/2000/svg" viewBox="0 0 379 371"><defs><style>.cls-1{fill:#fff;}.cls-2{fill:#e43229;}</style></defs><path class="cls-2" d="M189.281,335.889l-124.807-71.34V119.811L189.254,47.577l124.773,72.233v144.244l-124.746,71.834Zm-94.807-88.746l94.752,54.16,94.801-54.592v-109.604l-94.773-54.866-94.779,54.866v110.035Z"/><path class="cls-1" d="M252,51c-61.757,0-112,50.243-112,112s50.243,112,112,112,112-50.243,112-112-50.243-112-112-112Zm8.082,142.821l-34.095,20.913-35.987-21.897v-41.659l70.082,42.643Zm-70.082-44.984v-40.659l70.082,42.643-33.276,20.411-36.806-22.395Zm70.037,88.957l-40.338,23.226c-.744,.052-1.485,.077-2.223,.082-9.932-3.506-19.179-8.474-27.476-14.654v-51.269l70.037,42.615Zm-100.103-26.467l28.066-16.073v49.666c-11.566-9.056-21.168-20.505-28.066-33.593Zm-.917-1.779c-5.376-10.694-8.958-22.437-10.354-34.833l39.336-23.424v41.659l-28.983,16.598Zm28.983-60.584l-39.56,23.556c-.286-3.136-.44-6.31-.44-9.519,0-12.04,2.064-23.606,5.844-34.371l34.156-20.339v40.673Zm64,118.037c-10.669,0-20.967-1.617-30.664-4.615l42.627-24.544-36.055-21.938,36.01-22.089-35.192-21.413,35.192-21.587-74.803-45.515-34.173,20.349c15.04-38.946,52.872-66.647,97.058-66.647,57.346,0,104,46.654,104,104s-46.654,104-104,104Z"/></svg>