<?xml version="1.0" encoding="UTF-8"?><svg id="Ebene_1" xmlns="http://www.w3.org/2000/svg" viewBox="0 0 379 371"><defs><style>.cls-1{fill:#fff;}.cls-2{fill:#e43229;}</style></defs><path class="cls-2" d="M189.281,335.889l-124.807-71.34V119.811L189.254,47.577l124.773,72.233v144.244l-124.746,71.834Zm-94.807-88.746l94.752,54.16,94.801-54.592v-109.604l-94.773-54.866-94.779,54.866v110.035Z"/><path class="cls-1" d="M359,293H230.343l128.657-128.657v128.657Zm-109.343-8h101.343v-101.343l-101.343,101.343Z"/><g><path class="cls-1" d="M238,163.476v-29.726l-23,13.548v-28.548l-25,14.726v-28.226l-75,44.179v88.342l25-15.068v28.568l23-13.863v28.863l25-15.068v30.037l75-43.664v-88.825l-25,14.726Zm-98,56.89l-23,13.863v-83.658l71-41.821v25.904l-48,28.274v57.438Zm2-56.295l71-41.821v26.226l-50,29.452v57.143l-21,12.657v-83.658Zm73-14.452l21-12.37v27.404l-48,28.274v55.938l-23,13.863v-83.658m96,57.354l-71,41.336v-83.689l71-41.821v84.175Z"/><path class="cls-1" d="M246.307,178.25l-41.613,24.512v48.978l41.613-24.227v-49.263Zm-2,48.112l-20.981,12.215v-11.207l-2,1.164v11.207l-14.632,8.519v-44.356l14.307-8.427v25.93l12.035-7.375v8.093l1.965-1.144,.034-17.859-2.032,1.183,.034,7.381-10.035,6.15v-23.537l21.307-12.55v44.612Z"/></g></svg>