<?xml version="1.0" encoding="UTF-8"?><svg id="Ebene_1" xmlns="http://www.w3.org/2000/svg" viewBox="0 0 379 371"><defs><style>.cls-1{fill:#fff;}.cls-2{fill:#e43229;}</style></defs><path class="cls-2" d="M189.281,335.889l-124.807-71.34V119.811L189.254,47.577l124.773,72.233v144.244l-124.746,71.834Zm-94.807-88.746l94.752,54.16,94.801-54.592v-109.604l-94.773-54.866-94.779,54.866v110.035Z"/><path class="cls-1" d="M336.828,317.153l-46.717-46.717c11.375-12.996,18.291-29.988,18.291-48.575,0-40.728-33.134-73.861-73.86-73.861s-73.861,33.134-73.861,73.861,33.134,73.861,73.861,73.861c19.267,0,36.828-7.423,49.993-19.55l46.637,46.637,5.656-5.656Zm-102.286-29.431c-36.316,0-65.861-29.545-65.861-65.861s29.545-65.861,65.861-65.861,65.86,29.545,65.86,65.861-29.545,65.861-65.86,65.861Z"/><path class="cls-1" d="M262.011,150.352l-.035-.021-.061-.1-.051,.031-71.82-43.968-1.031-.631-1.038,.62-71.967,42.98-.975,.582v86.518l.988,.58,72.966,42.783,1.03,.604,1.02-.619,28-17,.971-.589-.009-1.135v-41.985l15-9v40.986l-.025,3.497,3.026-1.752,23.84-13.797,.997-.577,.002-1.151,.126-85.145,.002-1.123-.958-.586Zm-73.011-42.352l70.951,43.436-70.739,43.391-71.372-44.329,71.16-42.498Zm-71.967,44.351l71.079,44.148,.208,.127v80.389l-71.287-41.798v-82.866Zm119.967,98.649v-45l-19,12v43l-27.68,16.805v-81.312l70.645-43.333-.125,84.043-23.84,13.797Z"/></svg>