<?xml version="1.0" encoding="UTF-8"?><svg id="Ebene_1" xmlns="http://www.w3.org/2000/svg" viewBox="0 0 379 371"><defs><style>.cls-1{fill:#fff;}.cls-2{fill:#e43229;}</style></defs><path class="cls-2" d="M189.281,335.889l-124.807-71.34V119.811L189.254,47.577l124.773,72.233v144.244l-124.746,71.834Zm-94.807-88.746l94.752,54.16,94.801-54.592v-109.604l-94.773-54.866-94.779,54.866v110.035Z"/><path class="cls-1" d="M204.211,200.977c.149,.754,.12,1.551-.07,2.32l54.984,34.627-69.887,40.22-70.351-42.146,52.93-31.807c-.177-.773-.164-1.588,.096-2.391l-56.913,34.2,73.637,44.115,.573,.351,73.79-42.466-58.789-37.023Z"/><g><polygon class="cls-1" points="173.415 131.125 171.473 131.125 171.473 132.219 173.415 131.125"/><path class="cls-1" d="M218.905,124.319l-17.263-10.319-1.642,1-71,40,.943,.665,13.057,8.335,3.231,2.321,25.242-14.589v80.607l17.833,10.838,16.189-10.32v-100.788l13.41-7.75Zm-17.923-7.577l.03-.017,.029-.018,.611-.372,13.307,7.954-68.61,39.653-2.181-1.567-.045-.032-.046-.029-11.244-7.177m57.461,33.721v-21.393l11.884,6.955-11.884,14.438Zm.347,2.727l11.833,7.44-12.181,14.367v-22.007l.305,.251,.043-.052Zm-.347-49.219l12.181,7.659-12.181,14.367v-22.026Zm-16.82,88.849v-80.638l14.82-8.565v98.211l-14.82-9.007Zm16.82-14.75l11.884,6.955-11.884,14.438v-21.393Zm13.202,15.295l-11.766,7.501,11.766-14.297v6.796Zm0-9.887l-11.877-6.951,11.877-14.008v20.959Zm0-24.569l-11.573-7.277,11.573-14.063v21.34Zm0-24.431l-11.877-6.951,11.877-14.008v20.959Zm0-24.569l-12.496-7.857,12.496-7.222v15.079Z"/></g><polygon class="cls-1" points="260.366 217.657 225.56 182.85 231.216 177.193 260.366 206.343 327.355 139.355 333.012 145.012 260.366 217.657"/></svg>