<svg xmlns="http://www.w3.org/2000/svg" width="18.652" height="18.652" viewBox="0 0 18.652 18.652">
  <g id="Gruppe_1242" data-name="Gruppe 1242" transform="translate(-1039.999 -6599)">
    <path id="Pfad_29236" data-name="Pfad 29236" d="M13.405,5.759c2.49,0,2.785.009,3.769.054a5.162,5.162,0,0,1,1.732.321,3.089,3.089,0,0,1,1.77,1.77A5.162,5.162,0,0,1,21,9.637c.045.983.054,1.278.054,3.769S21.041,16.19,21,17.174a5.162,5.162,0,0,1-.321,1.732,3.089,3.089,0,0,1-1.77,1.77A5.162,5.162,0,0,1,17.174,21c-.983.045-1.278.054-3.769.054S10.62,21.041,9.637,21A5.162,5.162,0,0,1,7.9,20.675a3.089,3.089,0,0,1-1.77-1.77,5.162,5.162,0,0,1-.321-1.732c-.045-.983-.054-1.278-.054-3.769s.009-2.785.054-3.769A5.162,5.162,0,0,1,6.135,7.9,3.089,3.089,0,0,1,7.9,6.135a5.162,5.162,0,0,1,1.732-.321c.983-.045,1.278-.054,3.769-.054m0-1.68c-2.533,0-2.85.011-3.845.056A6.845,6.845,0,0,0,7.3,4.569,4.769,4.769,0,0,0,4.569,7.3,6.845,6.845,0,0,0,4.135,9.56c-.045.995-.056,1.312-.056,3.845s.011,2.85.056,3.845a6.845,6.845,0,0,0,.434,2.264A4.769,4.769,0,0,0,7.3,22.242a6.845,6.845,0,0,0,2.264.434c.995.045,1.312.056,3.845.056s2.85-.011,3.845-.056a6.845,6.845,0,0,0,2.264-.434,4.769,4.769,0,0,0,2.728-2.728,6.846,6.846,0,0,0,.434-2.264c.045-.995.056-1.312.056-3.845s-.011-2.85-.056-3.845A6.846,6.846,0,0,0,22.242,7.3a4.769,4.769,0,0,0-2.728-2.728,6.845,6.845,0,0,0-2.264-.434c-.995-.045-1.312-.056-3.845-.056Z" transform="translate(1035.92 6594.921)" fill="#191428"/>
    <path id="Pfad_29237" data-name="Pfad 29237" d="M131.424,126.635a4.789,4.789,0,1,0,4.789,4.789A4.789,4.789,0,0,0,131.424,126.635Zm0,7.9a3.109,3.109,0,1,1,3.109-3.109A3.109,3.109,0,0,1,131.424,134.533Z" transform="translate(917.901 6476.902)" fill="#191428"/>
    <ellipse id="Ellipse_227" data-name="Ellipse 227" cx="1.119" cy="1.119" rx="1.119" ry="1.119" transform="translate(1053.185 6602.229)" fill="#191428"/>
  </g>
</svg>
