<svg xmlns="http://www.w3.org/2000/svg" width="17.083" height="16.172" viewBox="0 0 17.083 16.172">
  <g id="Gruppe_1696" data-name="Gruppe 1696" transform="translate(-17.485 -14)">
    <path id="Pfad_29239" data-name="Pfad 29239" d="M283.265,379.159a3.979,3.979,0,0,1,1.363-1.245,3.471,3.471,0,0,1,2.09-.414,8.507,8.507,0,0,1,1.3.2,3.013,3.013,0,0,1,2.192,2.411,9.9,9.9,0,0,1,.256,2.037c.032,2.051.008,4.1.017,6.156,0,.221-.072.272-.277.27q-1.423-.013-2.847,0c-.213,0-.278-.066-.277-.278.007-1.771.013-3.542,0-5.312a6.333,6.333,0,0,0-.14-1.333,1.38,1.38,0,0,0-1.481-1.166,2.894,2.894,0,0,0-.729.067,1.677,1.677,0,0,0-1.245,1.51,6.24,6.24,0,0,0-.087,1.067c-.009,1.722,0,3.443,0,5.165,0,.275,0,.277-.283.277-.949,0-1.9,0-2.847,0-.21,0-.276-.059-.276-.275q.01-5.133,0-10.267c0-.275,0-.276.281-.276.914,0,1.827,0,2.741,0,.193,0,.259.053.253.249C283.256,378.386,283.265,378.773,283.265,379.159Z" transform="translate(-255.92 -358.401)" fill="#191428"/>
    <path id="Pfad_29240" data-name="Pfad 29240" d="M249.065,384.444c0-1.714,0-3.428,0-5.142,0-.2.046-.266.255-.264.969.011,1.939.009,2.909,0,.18,0,.245.045.245.235q-.007,5.174,0,10.348c0,.17-.049.238-.226.237q-1.475-.008-2.951,0c-.193,0-.23-.077-.23-.252C249.067,387.886,249.065,386.165,249.065,384.444Z" transform="translate(-231.32 -359.687)" fill="#191428"/>
    <path id="Pfad_29241" data-name="Pfad 29241" d="M249.589,352.552a1.956,1.956,0,1,1,1.96-1.941A1.938,1.938,0,0,1,249.589,352.552Z" transform="translate(-230.152 -334.641)" fill="#191428"/>
  </g>
</svg>
