<svg xmlns="http://www.w3.org/2000/svg" xmlns:xlink="http://www.w3.org/1999/xlink" width="140.863" height="40.011" viewBox="0 0 140.863 40.011">
  <defs>
    <clipPath id="clip-path">
      <path id="Pfad_29232" data-name="Pfad 29232" d="M0,6.622H140.862v-40.01H0Z" transform="translate(0 33.388)" fill="#e63229"/>
    </clipPath>
  </defs>
  <g id="Gruppe_1245" data-name="Gruppe 1245" transform="translate(-8.757 -22.601)">
    <g id="Gruppe_1225" data-name="Gruppe 1225" transform="translate(8.757 22.601)">
      <g id="Gruppe_1221" data-name="Gruppe 1221" transform="translate(0 0)" clip-path="url(#clip-path)">
        <path id="Pfad_29231" data-name="Pfad 29231" d="M132.674-26.169H128.6v22.86h4.074ZM97.885-8.752c2.133,3.469,7.352,5.794,12.987,5.794,6.206,0,11.141-2.548,11.141-7.418s-4.3-5.632-11.237-6.429c-5.983-.7-7.449-1.146-7.449-2.96,0-1.655,1.91-3.214,6.432-3.214,3.979,0,7.161,1.369,8.816,3.818l2.928-2.449c-1.94-2.992-6.525-4.9-11.586-4.9-6.366,0-10.44,3.023-10.44,7.161,0,4.457,4.138,5.412,9.963,6.08,6.683.763,8.593.955,8.593,3.373,0,2.037-2.96,3.406-7.065,3.406a11.86,11.86,0,0,1-10.155-4.966ZM75.031-26.169H70.957v22.86h4.074v-7.164l4.425-3.534L89.8-3.309h5.475L82.418-16.4l12.13-9.774H88.753L75.031-14.707ZM45.2-13.272h11.11c2.578,0,4.138,1.337,4.138,3.248,0,1.941-1.56,3.279-4.138,3.279H45.2Zm0-3.437v-6.016H55.579c2.61,0,4.2.985,4.2,2.991s-1.591,3.025-4.2,3.025Zm-3.919,13.4H56.532c4.712,0,7.834-2.356,7.834-6.368a5.674,5.674,0,0,0-4.139-5.539,5.117,5.117,0,0,0,3.406-4.935c0-3.884-2.769-6.018-7.673-6.018H41.283Z" transform="translate(8.188 34.752)" fill="#e63229"/>
      </g>
      <g id="Gruppe_1222" data-name="Gruppe 1222" transform="translate(21.423)">
        <path id="Pfad_29233" data-name="Pfad 29233" d="M0,0V4.489l10.979,6.338v12.71l3.887,2.245V8.584Z" fill="#e63229"/>
      </g>
      <g id="Gruppe_1223" data-name="Gruppe 1223" transform="translate(3.305 29.198)">
        <path id="Pfad_29234" data-name="Pfad 29234" d="M2.456,1.047-8.5-5.278l-3.887,2.245L2.456,5.535,17.3-3.033,13.408-5.278Z" transform="translate(12.384 5.278)" fill="#e63229"/>
      </g>
      <g id="Gruppe_1224" data-name="Gruppe 1224" transform="translate(0)">
        <path id="Pfad_29235" data-name="Pfad 29235" d="M2.461,0-12.406,8.584v17.2l3.887-2.245V10.827L2.461,4.489Z" transform="translate(12.406)" fill="#e63229"/>
      </g>
    </g>
  </g>
</svg>
